# xmcd CD database file generated by Grip 3.2.0
# 
# Track frame offsets:
#       150
#       18082
#       36657
#       53853
#       72490
#       89517
#       105140
#       119908
#       138395
#       155868
#       173063
#       191650
#       208668
#       223928
# 
# Disc length: 3209 seconds
# 
# Revision: 1
# Processed by: cddbd v1.5.2PL0 Copyright (c) Steve Scherf et al.
# Submitted via: Grip 3.2.0
# 
DISCID=d80c870e
DTITLE=Pat Green - Cannonball
DYEAR=2006
DGENRE=Country
TTITLE0=Cannonball
TTITLE1=Way Back Texas
TTITLE2=Love Like That
TTITLE3=Dixie Lullaby
TTITLE4=Feels Just Like It Should
TTITLE5=Missing Me
TTITLE6=Virginia Belle
TTITLE7=Finder's Keepers (Duet With Sara Evans)
TTITLE8=Won't Let Love
TTITLE9=Lost Without You
TTITLE10=I'm Trying To Find It
TTITLE11=Love Had Something To Say
TTITLE12=Learn How To Live
TTITLE13=Sleeping With The Lights On
EXTD=
EXTT0=
EXTT1=
EXTT2=
EXTT3=
EXTT4=
EXTT5=
EXTT6=
EXTT7=
EXTT8=
EXTT9=
EXTT10=
EXTT11=
EXTT12=
EXTT13=
PLAYORDER=
